<?xml version="1.0" encoding="UTF-8" standalone="no"?>
<svg
   xmlns:dc="http://purl.org/dc/elements/1.1/"
   xmlns:cc="http://creativecommons.org/ns#"
   xmlns:rdf="http://www.w3.org/1999/02/22-rdf-syntax-ns#"
   xmlns:svg="http://www.w3.org/2000/svg"
   xmlns="http://www.w3.org/2000/svg"
   xmlns:sodipodi="http://sodipodi.sourceforge.net/DTD/sodipodi-0.dtd"
   xmlns:inkscape="http://www.inkscape.org/namespaces/inkscape"
   width="25.0mm"
   height="34.0mm"
   viewBox="0 0 25.0 34.0"
   version="1.1"
   id="svg8"
   sodipodi:docname="Logo_Silk.svg"
   inkscape:version="1.0.1 (c497b03c, 2020-09-10)">
  <defs
     id="defs2" />
  <sodipodi:namedview
     id="base"
     pagecolor="#ffffff"
     bordercolor="#666666"
     borderopacity="1.0"
     inkscape:pageopacity="0.0"
     inkscape:pageshadow="2"
     inkscape:zoom="5.6"
     inkscape:cx="42.156468"
     inkscape:cy="63.648712"
     inkscape:document-units="mm"
     inkscape:current-layer="g854"
     inkscape:document-rotation="0"
     showgrid="true"
     inkscape:window-width="1421"
     inkscape:window-height="957"
     inkscape:window-x="499"
     inkscape:window-y="25"
     inkscape:window-maximized="0"
     borderlayer="true"
     inkscape:snap-global="false">
    <inkscape:grid
       spacingx="2.54"
       spacingy="2.54"
       empspacing="1"
       type="xygrid"
       units="mm"
       id="grid834" />
  </sodipodi:namedview>
  <metadata
     id="metadata5">
    <rdf:RDF>
      <cc:Work
         rdf:about="">
        <dc:format>image/svg+xml</dc:format>
        <dc:type
           rdf:resource="http://purl.org/dc/dcmitype/StillImage" />
        <dc:title></dc:title>
      </cc:Work>
    </rdf:RDF>
  </metadata>
  <g
     inkscape:groupmode="layer"
     id="layer1"
     inkscape:label="Logo">
    <path
       style="fill:#1d9c8e;stroke:none;stroke-width:0.105798"
       d="M 10.734888,9.0781573 10.523291,8.866561 C 9.283582,9.1610269 7.675335,10.02979 7.243551,11.299918 l 1.798566,0.528991 0.423192,0.528987 1.269579,-1.798566 c 1.322062,0.565746 3.985178,-0.381158 4.570051,1.481173 0.116803,0.371891 0.08506,0.779171 0.08506,1.16378 -0.450485,-0.174715 -0.885538,-0.391972 -1.375374,-0.418621 -2.707414,-0.147284 -2.768363,2.48457 -2.010162,4.333148 l -1.481173,-0.317394 0.211597,0.423192 C 9.6756798,17.273825 8.919572,16.332574 8.830523,15.320243 H 8.724724 c -0.19632,0.945582 0.766497,1.220138 0.8870418,2.010165 0.07839,0.513763 -0.6266748,1.103166 -0.6475268,1.692766 -0.0622,1.758683 2.081622,2.33158 3.463417,1.904366 6.3e-5,0.599984 -0.04395,1.053963 0.528991,1.375375 l -0.423192,-0.423192 0.211595,-0.634787 h 0.211597 l 0.528991,1.163778 h 0.105799 l 0.423189,-0.846384 -0.211595,0.740585 h 1.057979 c -0.112589,1.457476 -3.163634,0.746619 -4.020326,0.318242 C 8.951533,21.676378 8.40862,19.491226 8.407331,17.542004 7.822796,17.419277 7.495434,17.254454 7.243551,16.695618 6.718612,16.759218 6.473023,16.609848 6.502965,16.060831 l -0.952182,0.105796 c 0,1.617981 -0.06317,3.204201 0.460823,4.760913 1.198704,3.561058 4.708428,4.581375 8.108818,4.347244 0.958532,-0.06602 2.526035,-0.0071 3.351897,-0.570569 0.33834,-0.230852 0.252327,-0.77645 0.243651,-1.131721 -0.02846,-1.167058 -0.700171,-4.033869 1.165366,-3.597137 l -0.105799,-0.423191 0.740589,-0.211595 v -2.327557 c -0.696998,-0.0212 -1.006987,-0.755187 -1.375375,-1.269579 l 1.269576,0.63479 -0.317393,-0.63479 0.423192,0.105799 -1.375375,-0.740585 -1.269579,0.211594 0.105798,0.423192 -0.528991,-0.846384 h -0.105798 l -0.105795,2.010165 H 16.02479 l -0.105799,-0.211598 v -0.105796 l 0.211598,-0.211597 h -0.423192 l 0.317393,-0.528991 -0.528991,0.211597 -0.211594,-0.423192 v -0.105798 l 0.634786,-0.740589 -0.634786,0.423192 c -0.162402,-0.615395 -0.268411,-1.090259 0.211594,-1.586969 l 0.63479,1.057982 h 0.105799 c 0.124629,-0.41074 0.32247,-0.497189 0.740584,-0.528991 l -0.211597,0.634786 c 1.42637,-1.119457 0.966677,-2.807064 0.592366,-4.231922 -0.09247,-0.351948 0.18652,-0.8758279 -0.127275,-1.1490027 C 16.502999,8.7770169 14.416342,8.6793175 13.485638,8.6565158 12.745137,8.6383748 11.18069,8.3707797 10.734888,9.0781573 m 6.771075,2.0101627 c 0.254972,0.804425 0.167162,1.411348 0,2.221759 h -0.105799 l 0.105799,-2.221759 m -8.887038,0.211598 -0.105798,0.105796 0.105798,-0.105796 m -2.327557,1.375375 -0.105799,0.52899 0.63479,-0.317396 -0.528991,-0.211594 m 8.569642,1.692768 c -0.749388,-0.162453 -1.380725,0.167152 -1.869586,0.742216 -0.381995,0.449367 -0.510002,1.105822 -1.198557,0.950554 l 0.211597,-0.317396 c -0.511248,-0.313617 -0.480587,-0.851017 -0.266293,-1.375374 0.306855,-0.750827 1.041328,-1.361505 1.853266,-1.461578 1.089917,-0.134353 1.82332,0.405036 1.269573,1.461578 m -0.105796,0.211597 c -0.03788,0.879934 -0.184861,1.209716 -1.057982,1.375375 l -0.105795,-0.63479 H 13.27404 c 0.12532,-0.769954 0.836038,-0.740162 1.481174,-0.740585 m -8.992837,0.211594 -0.211594,1.163781 0.105795,0.105798 1.269579,-0.317396 -1.16378,-0.952183 m 3.173942,0.317397 v 0.105795 c 1.147168,0.09382 1.660153,0.861991 2.539155,1.481174 -0.571976,-0.989517 -1.392949,-1.583679 -2.539155,-1.586969 m 6.242087,0 -0.423192,0.846384 0.105796,-0.846384 h 0.317396 m -1.904366,0.52899 -0.105798,0.846384 -0.423192,-0.211597 0.105798,1.375374 c -0.468654,-0.6186 -0.27335,-1.674443 0.423192,-2.010161 m -5.924691,0.105796 -0.105798,0.423192 0.317393,0.105799 -0.211595,-0.528991 m 11.108798,0.846387 c -0.570675,0.13082 -1.042957,0.393145 -1.481175,-0.105799 h 0.63479 V 16.378225 H 17.18857 c 0.358336,-0.612783 1.043485,-0.384874 1.269577,0.211597 M 6.07977,16.378225 5.868176,17.013014 H 5.762377 L 6.07977,16.378225 m 6.559484,1.904365 -0.423195,0.211597 0.211597,0.317393 -0.317393,0.105799 c 0.259057,0.478206 0.267139,0.75487 0.105796,1.269576 l 0.211597,0.317394 h -0.105798 l -0.528991,-0.423192 0.423192,0.634789 c -0.86182,0.01778 -1.810035,0.319615 -2.5277262,-0.341517 C 8.669707,19.436212 9.148465,17.009521 10.734888,18.070992 l -0.423192,-0.634786 c 1.03901,-0.351726 1.97962,-0.335231 2.327558,0.846384 m -1.904366,-0.211598 0.634787,0.528991 -0.634787,-0.528991 m 0.211595,0.63479 -0.423192,0.634789 0.423192,-0.634789 m 0.528991,0.634789 0.317393,0.740586 z"
       id="path1485" />
  </g>
  <g
     inkscape:label="[fixed] BG"
     inkscape:groupmode="layer"
     sodipodi:insensitive="true"
     id="g840"
     style="display:none">
    <rect
       x="0"
       y="0"
       width="25"
       height="34"
       style="fill:#ffffff;fill-opacity:1;stroke:none"
       id="rect838" />
  </g>
  <g
     inkscape:label="Edge.Cuts"
     inkscape:groupmode="layer"
     id="g842" />
  <g
     inkscape:label="B.Cu"
     inkscape:groupmode="layer"
     id="g844" />
  <g
     inkscape:label="B.Mask"
     inkscape:groupmode="layer"
     id="g846" />
  <g
     inkscape:label="B.SilkS"
     inkscape:groupmode="layer"
     id="g848" />
  <g
     inkscape:label="F.Cu"
     inkscape:groupmode="layer"
     id="g850" />
  <g
     inkscape:label="F.Mask"
     inkscape:groupmode="layer"
     id="g852" />
  <g
     inkscape:label="F.SilkS"
     inkscape:groupmode="layer"
     id="g854">
    <path
       style="fill:#1d9c8e;stroke:none;stroke-width:0.105798"
       d="M 10.734888,9.0781573 10.523291,8.866561 C 9.283582,9.1610269 7.675335,10.02979 7.243551,11.299918 l 1.798566,0.528991 0.423192,0.528987 1.269579,-1.798566 c 1.322062,0.565746 3.985178,-0.381158 4.570051,1.481173 0.116803,0.371891 0.08506,0.779171 0.08506,1.16378 -0.450485,-0.174715 -0.885538,-0.391972 -1.375374,-0.418621 -2.707414,-0.147284 -2.768363,2.48457 -2.010162,4.333148 l -1.481173,-0.317394 0.211597,0.423192 C 9.6756798,17.273825 8.919572,16.332574 8.830523,15.320243 H 8.724724 c -0.19632,0.945582 0.766497,1.220138 0.8870418,2.010165 0.07839,0.513763 -0.6266748,1.103166 -0.6475268,1.692766 -0.0622,1.758683 2.081622,2.33158 3.463417,1.904366 6.3e-5,0.599984 -0.04395,1.053963 0.528991,1.375375 l -0.423192,-0.423192 0.211595,-0.634787 h 0.211597 l 0.528991,1.163778 h 0.105799 l 0.423189,-0.846384 -0.211595,0.740585 h 1.057979 c -0.112589,1.457476 -3.163634,0.746619 -4.020326,0.318242 C 8.951533,21.676378 8.40862,19.491226 8.407331,17.542004 7.822796,17.419277 7.495434,17.254454 7.243551,16.695618 6.718612,16.759218 6.473023,16.609848 6.502965,16.060831 l -0.952182,0.105796 c 0,1.617981 -0.06317,3.204201 0.460823,4.760913 1.198704,3.561058 4.708428,4.581375 8.108818,4.347244 0.958532,-0.06602 2.526035,-0.0071 3.351897,-0.570569 0.33834,-0.230852 0.252327,-0.77645 0.243651,-1.131721 -0.02846,-1.167058 -0.700171,-4.033869 1.165366,-3.597137 l -0.105799,-0.423191 0.740589,-0.211595 v -2.327557 c -0.696998,-0.0212 -1.006987,-0.755187 -1.375375,-1.269579 l 1.269576,0.63479 -0.317393,-0.63479 0.423192,0.105799 -1.375375,-0.740585 -1.269579,0.211594 0.105798,0.423192 -0.528991,-0.846384 h -0.105798 l -0.105795,2.010165 H 16.02479 l -0.105799,-0.211598 v -0.105796 l 0.211598,-0.211597 h -0.423192 l 0.317393,-0.528991 -0.528991,0.211597 -0.211594,-0.423192 v -0.105798 l 0.634786,-0.740589 -0.634786,0.423192 c -0.162402,-0.615395 -0.268411,-1.090259 0.211594,-1.586969 l 0.63479,1.057982 h 0.105799 c 0.124629,-0.41074 0.32247,-0.497189 0.740584,-0.528991 l -0.211597,0.634786 c 1.42637,-1.119457 0.966677,-2.807064 0.592366,-4.231922 -0.09247,-0.351948 0.18652,-0.8758279 -0.127275,-1.1490027 C 16.502999,8.7770169 14.416342,8.6793175 13.485638,8.6565158 12.745137,8.6383748 11.18069,8.3707797 10.734888,9.0781573 m 6.771075,2.0101627 c 0.254972,0.804425 0.167162,1.411348 0,2.221759 h -0.105799 l 0.105799,-2.221759 m -8.887038,0.211598 -0.105798,0.105796 0.105798,-0.105796 m -2.327557,1.375375 -0.105799,0.52899 0.63479,-0.317396 -0.528991,-0.211594 m 8.569642,1.692768 c -0.749388,-0.162453 -1.380725,0.167152 -1.869586,0.742216 -0.381995,0.449367 -0.510002,1.105822 -1.198557,0.950554 l 0.211597,-0.317396 c -0.511248,-0.313617 -0.480587,-0.851017 -0.266293,-1.375374 0.306855,-0.750827 1.041328,-1.361505 1.853266,-1.461578 1.089917,-0.134353 1.82332,0.405036 1.269573,1.461578 m -0.105796,0.211597 c -0.03788,0.879934 -0.184861,1.209716 -1.057982,1.375375 l -0.105795,-0.63479 H 13.27404 c 0.12532,-0.769954 0.836038,-0.740162 1.481174,-0.740585 m -8.992837,0.211594 -0.211594,1.163781 0.105795,0.105798 1.269579,-0.317396 -1.16378,-0.952183 m 3.173942,0.317397 v 0.105795 c 1.147168,0.09382 1.660153,0.861991 2.539155,1.481174 -0.571976,-0.989517 -1.392949,-1.583679 -2.539155,-1.586969 m 6.242087,0 -0.423192,0.846384 0.105796,-0.846384 h 0.317396 m -1.904366,0.52899 -0.105798,0.846384 -0.423192,-0.211597 0.105798,1.375374 c -0.468654,-0.6186 -0.27335,-1.674443 0.423192,-2.010161 m -5.924691,0.105796 -0.105798,0.423192 0.317393,0.105799 -0.211595,-0.528991 m 11.108798,0.846387 c -0.570675,0.13082 -1.042957,0.393145 -1.481175,-0.105799 h 0.63479 V 16.378225 H 17.18857 c 0.358336,-0.612783 1.043485,-0.384874 1.269577,0.211597 M 6.07977,16.378225 5.868176,17.013014 H 5.762377 L 6.07977,16.378225 m 6.559484,1.904365 -0.423195,0.211597 0.211597,0.317393 -0.317393,0.105799 c 0.259057,0.478206 0.267139,0.75487 0.105796,1.269576 l 0.211597,0.317394 h -0.105798 l -0.528991,-0.423192 0.423192,0.634789 c -0.86182,0.01778 -1.810035,0.319615 -2.5277262,-0.341517 C 8.669707,19.436212 9.148465,17.009521 10.734888,18.070992 l -0.423192,-0.634786 c 1.03901,-0.351726 1.97962,-0.335231 2.327558,0.846384 m -1.904366,-0.211598 0.634787,0.528991 -0.634787,-0.528991 m 0.211595,0.63479 -0.423192,0.634789 0.423192,-0.634789 m 0.528991,0.634789 0.317393,0.740586 z"
       id="path1502" />
  </g>
  <g
     inkscape:label="Dwgs.User"
     inkscape:groupmode="layer"
     id="g856" />
  <g
     inkscape:label="Drill"
     inkscape:groupmode="layer"
     id="g858" />
</svg>
